<?xml version="1.0" standalone="no"?>
<!DOCTYPE svg PUBLIC "-//W3C//DTD SVG 20010904//EN"
 "http://www.w3.org/TR/2001/REC-SVG-20010904/DTD/svg10.dtd">
<svg version="1.0" xmlns="http://www.w3.org/2000/svg"
 width="480.000000pt" height="480.000000pt" viewBox="0 0 480.000000 480.000000"
 preserveAspectRatio="xMidYMid meet">
<metadata>
Created by potrace 1.11, written by Peter Selinger 2001-2013
</metadata>
<g transform="translate(0.000000,480.000000) scale(0.100000,-0.100000)"
fill="#000000" stroke="none">
<path d="M2545 4088 c-27 -5 -55 -10 -62 -10 -7 -1 -14 -7 -17 -15 -3 -7 -12
-13 -21 -13 -8 0 -15 -4 -15 -10 0 -5 -3 -9 -7 -9 -39 6 -57 -12 -67 -66 -3
-15 -7 -30 -10 -32 -6 -6 -56 46 -56 58 0 5 -7 6 -15 3 -10 -4 -15 0 -15 12 0
14 -3 15 -12 6 -7 -7 -17 -8 -30 -1 -10 5 -18 7 -18 3 0 -3 -6 -1 -13 5 -8 6
-17 8 -21 4 -3 -4 -12 2 -20 12 -12 16 -16 17 -30 6 -9 -7 -13 -18 -9 -25 3
-6 -7 0 -23 14 -15 14 -23 18 -16 9 13 -17 -1 -39 -24 -39 -6 0 -17 -7 -24
-15 -7 -8 -15 -13 -19 -12 -6 3 -50 -39 -51 -48 0 -3 0 -10 0 -16 0 -5 -4 -8
-8 -5 -5 3 -8 -9 -7 -27 2 -31 -14 -57 -34 -57 -6 0 -11 -7 -11 -15 0 -8 -4
-15 -9 -15 -11 0 -20 -32 -27 -102 -5 -48 -2 -66 20 -113 14 -30 31 -61 38
-69 7 -7 22 -25 33 -39 11 -15 24 -27 28 -27 13 0 147 -92 147 -100 0 -5 -6
-10 -12 -13 -9 -3 -8 -7 4 -12 11 -4 37 6 74 30 32 21 64 38 71 39 26 4 22 14
-17 41 -47 33 -97 97 -139 181 -72 142 -70 258 5 324 39 34 61 37 107 14 29
-15 147 -127 147 -140 0 -3 12 -21 26 -39 14 -19 26 -37 26 -42 1 -4 10 -28
21 -53 12 -25 23 -70 25 -101 l4 -57 59 29 59 30 -23 37 c-60 97 -83 270 -47
350 11 24 30 52 42 62 28 24 81 25 113 4 62 -41 115 -184 117 -316 1 -58 3
-65 20 -61 10 3 19 10 19 17 6 42 3 203 -3 199 -7 -4 -9 2 -12 40 -1 6 -5 15
-10 19 -5 3 -11 12 -12 20 -8 44 -62 127 -84 127 -3 0 -18 4 -33 10 -46 18
-70 20 -122 9z"/>
<path d="M2614 3845 c-20 -50 31 -210 66 -210 30 0 17 110 -22 188 -20 39 -35
47 -44 22z"/>
<path d="M2234 3755 c-19 -48 70 -235 112 -235 22 0 17 45 -12 119 -31 78 -50
108 -76 122 -14 7 -20 6 -24 -6z"/>
<path d="M2891 3569 c-14 -5 -30 -8 -37 -5 -7 3 -15 -2 -18 -11 -4 -9 -9 -13
-13 -10 -3 4 -18 -2 -32 -12 -45 -32 -121 -72 -121 -64 0 4 -5 0 -11 -10 -5
-9 -24 -24 -42 -34 -18 -9 -50 -28 -72 -42 -22 -14 -44 -25 -48 -26 -4 0 -11
-4 -15 -10 -8 -11 -34 -27 -111 -67 -64 -33 -65 -33 -57 -12 7 19 -3 64 -15
64 -5 0 -9 -8 -9 -17 0 -15 -2 -16 -10 -3 -9 13 -10 13 -10 0 0 -13 -1 -13
-10 0 -9 13 -10 13 -11 0 0 -10 -3 -8 -9 5 -5 11 -9 14 -9 7 -1 -7 -5 -10 -11
-7 -5 3 -10 0 -10 -7 0 -10 -2 -10 -9 1 -7 11 -11 10 -19 -6 -8 -15 -7 -22 9
-31 11 -7 17 -16 14 -21 -2 -5 2 -14 10 -21 8 -7 15 -9 15 -4 0 5 5 1 10 -8 7
-11 18 -15 33 -12 12 3 33 7 46 10 13 3 31 9 40 13 27 15 190 43 216 39 13 -3
22 -2 20 2 -2 4 33 10 78 13 45 3 105 8 134 11 57 6 59 4 68 -44 3 -18 9 -38
12 -43 7 -11 10 -33 18 -127 10 -114 17 -126 55 -91 12 12 14 38 12 134 -1 66
-6 124 -10 131 -3 6 -7 13 -7 16 -4 32 -19 51 -36 47 -10 -3 -19 -3 -19 -1 0
7 63 29 73 26 4 -1 6 2 5 6 -2 4 9 20 24 35 27 27 45 36 33 17 -3 -5 -4 -10
-1 -10 2 0 14 16 26 35 25 41 20 101 -11 110 -10 4 -19 11 -19 16 0 5 -18 9
-39 9 -22 0 -43 5 -46 10 -7 12 -22 12 -54 -1z"/>
<path d="M1473 3429 c-7 -17 -16 -28 -21 -25 -5 3 -10 -7 -10 -22 0 -15 -5
-51 -11 -81 -6 -30 -9 -57 -6 -60 9 -8 25 21 25 46 0 12 4 32 9 46 5 13 16 47
25 75 16 56 8 72 -11 21z"/>
<path d="M1403 3274 c-7 -16 -9 -33 -3 -47 5 -12 9 -20 10 -17 3 7 8 90 7 90
-1 0 -7 -12 -14 -26z"/>
<path d="M1750 3291 c13 -9 13 -11 -2 -11 -9 0 -30 -17 -45 -37 -15 -21 -36
-47 -45 -57 -10 -11 -18 -24 -18 -28 0 -5 -4 -7 -8 -4 -8 4 -39 -81 -34 -96 1
-3 -5 -9 -13 -12 -8 -3 -15 0 -15 6 0 6 -3 8 -7 5 -3 -4 -15 1 -26 10 -11 10
-17 13 -14 6 10 -17 -33 -45 -49 -32 -8 7 -14 4 -18 -7 -4 -9 -9 -14 -12 -11
-3 3 0 15 6 27 10 18 9 21 -7 18 -10 -2 -21 -10 -25 -18 -5 -13 -7 -12 -7 2
-1 9 4 20 9 23 6 4 8 10 5 15 -3 5 -1 11 5 15 13 8 13 35 1 35 -8 0 -24 -32
-26 -52 0 -3 -4 -10 -9 -15 -5 -5 -6 -3 -2 5 4 7 1 15 -8 18 -9 3 -13 11 -9
17 4 6 1 7 -6 3 -7 -5 -10 -14 -7 -22 3 -8 1 -14 -5 -14 -6 0 -9 10 -7 23 2
16 -2 22 -15 21 -13 -2 -17 4 -15 20 2 13 -2 20 -10 18 -8 -1 -11 2 -8 7 11
18 -5 39 -25 34 -19 -5 -19 -5 -3 31 10 19 14 39 10 43 -9 9 -46 -33 -46 -53
0 -8 -4 -14 -9 -14 -25 0 -44 -178 -25 -232 7 -21 11 -38 8 -38 -11 0 39 -83
69 -113 39 -40 116 -77 163 -79 26 -1 39 5 51 22 9 12 47 55 84 94 38 39 75
78 82 86 8 8 17 44 21 80 7 67 36 156 67 201 20 29 19 61 -2 67 -11 3 -11 1 1
-7z m-375 -250 c3 -5 2 -12 -3 -15 -5 -3 -9 1 -9 9 0 17 3 19 12 6z"/>
<path d="M1989 3227 c-9 -20 -7 -74 5 -97 8 -16 18 -44 21 -62 4 -18 11 -38
16 -44 5 -6 20 -57 33 -114 14 -61 31 -109 41 -116 37 -27 71 11 59 67 -2 13
-7 48 -9 78 -3 29 -13 72 -23 95 -21 46 -36 97 -33 109 3 14 -63 77 -86 82
-13 2 -23 3 -24 2z"/>
<path d="M1440 3090 c-6 -11 -8 -20 -6 -20 3 0 10 9 16 20 6 11 8 20 6 20 -3
0 -10 -9 -16 -20z"/>
<path d="M3215 2983 c-11 -7 -19 -16 -17 -18 6 -12 -1 -24 -38 -65 -22 -25
-40 -51 -40 -59 0 -8 -3 -11 -7 -8 -3 4 -12 -2 -20 -13 -8 -11 -42 -39 -76
-62 -34 -23 -66 -47 -70 -55 -4 -7 -15 -13 -23 -13 -9 0 -29 -9 -45 -21 -16
-11 -29 -17 -29 -13 0 3 -6 1 -13 -5 -8 -6 -17 -8 -20 -4 -4 3 -7 2 -7 -4 0
-6 -9 -9 -20 -6 -11 3 -20 1 -20 -5 0 -6 -9 -9 -20 -7 -11 2 -20 0 -20 -4 0
-5 -12 -7 -27 -5 -16 2 -85 5 -154 6 -69 1 -137 6 -150 11 -26 11 -35 13 -61
15 -11 1 -18 10 -18 23 0 15 -5 19 -15 15 -8 -3 -15 -2 -15 3 0 5 -12 11 -26
14 -27 5 -90 -22 -89 -38 4 -41 21 -86 46 -117 16 -20 29 -41 29 -47 0 -5 10
-13 22 -17 26 -8 40 -21 57 -52 15 -29 67 -55 98 -49 22 4 78 -17 93 -34 9
-10 57 -19 64 -11 4 4 11 7 14 8 4 0 15 4 25 8 9 5 23 4 30 -1 36 -29 133 -8
188 40 26 23 32 24 65 14 28 -8 37 -8 44 2 4 8 12 11 18 7 6 -3 17 1 25 9 9 8
23 15 32 15 15 0 47 58 39 71 -2 4 10 5 26 3 17 -2 30 1 30 6 0 6 8 10 18 10
29 0 65 58 66 105 1 39 25 73 34 47 6 -20 36 18 49 62 17 56 16 107 -4 175
-20 68 -39 86 -68 64z"/>
<path d="M3094 1943 c-4 -20 -7 -63 -7 -95 0 -32 -4 -58 -9 -58 -4 0 -8 10 -8
23 0 13 -5 28 -12 35 -7 7 -9 12 -4 12 4 0 -9 15 -29 34 -48 45 -79 40 -72
-13 2 -20 7 -47 10 -59 5 -19 3 -23 -9 -18 -13 5 -12 -1 5 -30 12 -19 18 -40
15 -46 -4 -6 -2 -8 3 -5 6 4 13 -1 15 -11 6 -21 38 -26 38 -6 0 7 7 19 15 28
9 8 14 18 13 22 -2 4 4 11 13 17 25 15 68 0 82 -30 l12 -26 6 24 c11 43 10
187 -1 194 -5 3 -10 15 -10 26 0 14 -7 19 -30 19 -26 0 -30 -4 -36 -37z"/>
<path d="M855 1931 c-3 -6 -3 -16 1 -23 4 -7 3 -8 -5 -4 -9 6 -11 -9 -10 -54
1 -33 6 -63 11 -66 4 -3 8 -14 8 -25 0 -19 -1 -19 -22 -5 -35 25 -68 21 -68
-8 0 -22 60 -88 89 -97 6 -2 12 -30 14 -65 2 -55 0 -60 -15 -51 -9 6 -14 15
-12 19 3 4 -4 8 -15 8 -11 0 -24 7 -29 15 -4 9 -18 17 -30 20 -16 3 -23 -2
-26 -18 -7 -32 -4 -57 6 -57 4 0 8 -6 8 -14 0 -8 10 -22 23 -31 20 -14 94 -40
108 -37 3 0 13 -24 23 -54 10 -33 23 -54 32 -54 17 0 17 0 0 36 -8 16 -17 44
-21 61 -6 29 -3 34 19 43 17 6 26 17 26 31 0 12 11 30 25 41 28 22 34 72 11
81 -15 6 -67 -28 -64 -41 1 -4 -4 -20 -10 -35 -7 -16 -12 -34 -13 -40 0 -7 -7
22 -15 63 -12 69 -12 76 4 87 9 7 23 17 30 23 6 6 12 7 12 3 0 -4 7 2 15 15
22 30 23 72 3 85 -19 13 -41 -2 -70 -48 l-20 -30 7 55 c4 30 8 82 9 115 1 48
-2 60 -16 63 -9 2 -19 -2 -23 -7z"/>
<path d="M1435 1870 c3 -4 -2 -11 -11 -14 -8 -3 -12 -11 -9 -16 4 -6 1 -9 -6
-8 -13 3 -16 -3 -18 -48 0 -14 -5 -22 -11 -19 -6 4 -8 10 -5 14 2 5 -6 18 -19
31 -19 17 -28 20 -43 11 -10 -6 -14 -11 -10 -11 8 0 -7 -21 -35 -47 -9 -9 -15
-20 -12 -25 3 -4 0 -17 -7 -29 -11 -21 -10 -21 25 -15 49 9 76 0 77 -27 0 -15
7 -7 24 28 13 28 24 56 25 63 0 6 5 12 12 12 6 0 9 3 5 6 -3 3 7 19 22 35 32
33 35 56 9 62 -10 3 -16 2 -13 -3z"/>
<path d="M2922 1815 c0 -16 2 -22 5 -12 2 9 2 23 0 30 -3 6 -5 -1 -5 -18z"/>
<path d="M3244 1781 c3 -5 -3 -11 -14 -14 -11 -3 -20 -12 -20 -21 0 -9 -4 -16
-9 -16 -13 0 -22 -42 -11 -55 5 -6 11 -22 13 -35 2 -14 7 -33 11 -42 7 -15 9
-15 27 0 10 9 19 22 19 29 0 7 4 13 9 13 7 0 12 14 26 78 7 27 -17 72 -37 72
-10 0 -17 -4 -14 -9z"/>
<path d="M3620 1710 c0 -5 -9 -12 -20 -15 -29 -9 -25 -23 14 -39 22 -9 36 -23
40 -40 3 -14 13 -26 22 -26 9 0 14 -6 11 -14 -3 -7 4 -21 15 -30 18 -16 22
-16 44 -1 26 17 34 51 10 42 -10 -4 -13 -1 -9 9 3 7 10 14 17 15 6 0 0 5 -13
10 -18 7 -21 13 -13 21 13 13 -8 38 -32 38 -9 0 -16 8 -16 17 0 9 -3 14 -6 11
-3 -4 -19 -2 -35 2 -16 5 -29 5 -29 0z"/>
<path d="M3754 1692 c3 -5 0 -13 -6 -15 -9 -4 -10 -6 -1 -6 17 -1 25 16 12 25
-7 4 -9 3 -5 -4z"/>
<path d="M2934 1647 c1 -37 3 -44 12 -32 10 14 13 14 25 -1 10 -13 10 -17 -2
-24 -10 -7 -8 -9 9 -7 12 0 22 2 22 4 0 1 -13 17 -29 35 -16 18 -31 42 -33 53
-3 11 -5 -1 -4 -28z"/>
<path d="M3008 1673 c6 -2 9 -10 6 -15 -4 -7 -2 -8 5 -4 13 9 5 26 -12 25 -9
0 -8 -2 1 -6z"/>
<path d="M1158 1653 c-34 -9 -57 -63 -52 -123 3 -30 10 -58 16 -61 5 -4 11
-18 11 -32 1 -14 5 -23 10 -20 8 5 37 -21 37 -34 0 -4 10 -19 21 -33 11 -14
18 -20 15 -14 -3 6 2 23 10 39 13 25 13 26 -1 15 -20 -17 -32 -4 -18 18 9 15
11 106 2 137 -1 6 1 27 5 48 12 54 -6 73 -56 60z"/>
<path d="M1700 1610 c-9 -6 -10 -10 -3 -10 6 0 15 5 18 10 8 12 4 12 -15 0z"/>
<path d="M2970 1555 c-7 -8 -16 -13 -19 -10 -4 2 -8 -2 -8 -9 0 -19 19 -10 35
14 14 23 10 26 -8 5z"/>
<path d="M3420 1517 c-29 -10 -35 -17 -37 -45 -2 -19 -11 -46 -21 -60 -10 -15
-23 -38 -28 -52 -12 -28 -7 -120 6 -120 21 0 50 60 50 103 0 40 2 45 20 40 11
-3 17 -9 14 -14 -3 -5 10 -10 28 -10 18 -1 25 -3 15 -6 -19 -5 -17 -30 2 -25
6 1 11 -2 11 -6 0 -4 16 -9 35 -10 19 -2 35 2 35 8 0 5 -9 10 -20 10 -23 0
-46 40 -37 63 3 8 23 18 44 21 21 4 48 10 59 12 16 4 23 0 27 -16 3 -12 10
-19 15 -16 5 3 12 -3 15 -13 4 -18 9 -18 47 -9 33 9 39 13 26 20 -9 5 -21 6
-26 3 -6 -3 -10 -4 -10 0 0 3 12 10 28 16 15 7 22 13 15 16 -7 3 -13 9 -13 15
0 6 6 8 14 5 8 -3 22 3 31 13 15 17 15 19 -2 23 -17 5 -17 5 0 6 24 1 16 26
-9 26 -10 1 -34 -5 -52 -12 -18 -8 -37 -11 -41 -9 -4 3 -17 -1 -27 -9 -21 -16
-94 -20 -94 -6 0 5 -7 12 -16 15 -9 4 -13 2 -8 -5 4 -8 0 -7 -15 0 -12 7 -27
9 -34 5 -6 -4 -3 2 7 14 19 22 19 22 0 21 -10 0 -35 -5 -54 -12z m225 -67 c-3
-5 -11 -10 -16 -10 -6 0 -7 5 -4 10 3 6 11 10 16 10 6 0 7 -4 4 -10z m-254
-43 c-13 -13 -26 -3 -16 12 3 6 11 8 17 5 6 -4 6 -10 -1 -17z m76 -23 c-3 -3
-12 -4 -19 -1 -8 3 -5 6 6 6 11 1 17 -2 13 -5z"/>
<path d="M2921 1434 c0 -11 3 -14 6 -6 3 7 2 16 -1 19 -3 4 -6 -2 -5 -13z"/>
<path d="M2915 1370 c3 -5 8 -10 11 -10 2 0 4 5 4 10 0 6 -5 10 -11 10 -5 0
-7 -4 -4 -10z"/>
<path d="M3637 1334 c-26 -14 -52 -22 -57 -19 -17 11 -16 -10 2 -27 10 -10 19
-17 21 -17 7 5 47 -14 47 -22 0 -5 5 -9 11 -9 5 0 7 4 4 10 -3 6 1 7 9 4 9 -3
14 -9 11 -13 -2 -4 2 -8 10 -8 8 0 15 4 15 9 0 5 5 6 10 3 6 -3 15 -3 21 1 8
4 7 9 -2 15 -10 6 -11 9 -1 9 18 0 15 27 -5 39 -10 6 -12 11 -5 11 17 0 15 17
-4 24 -8 3 -12 2 -9 -4 10 -15 -6 -12 -19 4 -9 13 -18 11 -59 -10z"/>
<path d="M2915 1320 c3 -5 8 -10 11 -10 2 0 4 5 4 10 0 6 -5 10 -11 10 -5 0
-7 -4 -4 -10z"/>
<path d="M797 1243 c-3 -19 5 -35 35 -66 22 -23 44 -41 49 -39 5 1 9 -4 9 -12
0 -21 27 -40 33 -24 4 9 6 8 6 -3 1 -21 48 -60 65 -53 8 3 16 14 19 25 6 22
-16 73 -26 62 -4 -3 -10 3 -13 13 -8 20 -84 101 -84 88 0 -4 -8 0 -17 8 -10 9
-30 18 -45 20 -22 4 -27 1 -31 -19z"/>
<path d="M2875 1227 c-14 -38 -15 -50 -5 -62 11 -13 10 -14 -4 -9 -9 4 -16 1
-16 -6 0 -7 -16 -35 -35 -61 -19 -27 -29 -49 -22 -49 9 0 9 -2 -1 -9 -11 -7
-11 -11 2 -24 23 -23 21 -99 -3 -121 -10 -9 -28 -18 -39 -19 -11 0 -19 -4 -16
-8 6 -11 48 2 57 18 11 18 28 17 21 -2 -4 -9 0 -15 10 -15 10 0 16 9 16 24 0
35 27 41 39 8 7 -22 10 -23 10 -7 2 35 27 96 36 88 5 -5 4 -1 -3 8 -9 12 -9
16 1 17 6 0 21 2 32 4 26 4 32 -39 11 -81 -20 -37 -20 -52 -2 -45 8 3 18 20
22 37 11 54 48 66 42 13 -3 -32 -2 -33 22 -26 14 5 40 14 58 22 l32 14 -19 23
c-11 13 -25 20 -31 16 -6 -4 -17 -1 -25 5 -12 10 -18 10 -31 0 -12 -11 -18
-10 -32 4 -15 15 -15 16 -1 11 19 -7 35 10 19 20 -7 4 -7 12 0 26 12 21 1 26
-19 7 -10 -11 -10 -8 0 15 15 33 4 48 -17 21 -15 -18 -15 -18 -5 3 11 23 5 56
-9 48 -5 -3 -17 6 -28 20 -19 24 -21 25 -31 8 -9 -16 -10 -15 -11 8 0 14 -5
30 -11 36 -8 8 -7 13 2 18 8 6 10 4 4 -6 -6 -10 -5 -11 4 -3 8 7 9 19 3 34 -8
22 -10 21 -27 -23z m-24 -145 c-6 -2 -18 -10 -26 -19 -16 -16 -18 -13 -9 11 3
9 10 13 15 10 5 -3 12 3 16 12 5 14 8 15 11 4 3 -8 0 -16 -7 -18z m109 -37 c0
-2 -10 -9 -22 -15 -22 -11 -22 -10 -4 4 21 17 26 19 26 11z"/>
<path d="M3461 1134 c0 -11 3 -14 6 -6 3 7 2 16 -1 19 -3 4 -6 -2 -5 -13z"/>
<path d="M890 999 c0 -28 53 -84 70 -74 4 2 8 27 9 55 1 47 -1 50 -19 40 -12
-7 -20 -7 -20 -1 0 5 -9 9 -20 8 -15 -1 -20 -8 -20 -28z"/>
<path d="M3039 1025 c-1 -3 -2 -8 -3 -12 -1 -5 -5 -15 -11 -23 -8 -13 -7 -13
8 -1 14 11 20 11 32 1 12 -10 15 -10 15 0 0 6 -9 14 -20 17 -11 3 -17 9 -14
14 3 5 3 9 0 9 -3 0 -7 -2 -7 -5z"/>
</g>
</svg>
